HIERARCHY
ROOT Hips
{
	OFFSET 7.685713 105.461678 -0.638886
	CHANNELS 6 Xposition Yposition Zposition Xrotation Yrotation Zrotation
	JOINT Chest
	{
		OFFSET 2.677432 13.292717 1.513043
		CHANNELS 3 Xrotation Yrotation Zrotation
		JOINT Chest2
		{
			OFFSET 2.424706 20.460297 5.879099
			CHANNELS 3 Xrotation Yrotation Zrotation
			JOINT Chest3
			{
				OFFSET -0.021918 14.923080 0.348132
				CHANNELS 3 Xrotation Yrotation Zrotation
				JOINT Neck
				{
					OFFSET -1.007869 17.042526 2.674419
					CHANNELS 3 Xrotation Yrotation Zrotation
					JOINT Head
					{
						OFFSET -2.798580 9.592300 3.159681
						CHANNELS 3 Xrotation Yrotation Zrotation
						End Site
						{
							OFFSET -2.793770 9.616135 3.090731
						}
					}
				}
				JOINT LeftCollar
				{
					OFFSET 3.950771 13.052750 3.977627
					CHANNELS 3 Xrotation Yrotation Zrotation
					JOINT LeftUpArm
					{
						OFFSET 12.183847 7.647110 -10.078444
						CHANNELS 3 Xrotation Yrotation Zrotation
						JOINT LeftLowArm
						{
							OFFSET 24.667835 20.921951 9.669406
							CHANNELS 3 Xrotation Yrotation Zrotation
							JOINT LeftHand
							{
								OFFSET -23.258026 -6.985794 17.641172
								CHANNELS 3 Xrotation Yrotation Zrotation
								End Site
								{
									OFFSET -5.083170 -1.526810 3.855576
								}
							}
						}
					}
				}
				JOINT RightCollar
				{
					OFFSET -4.252896 12.297379 5.700519
					CHANNELS 3 Xrotation Yrotation Zrotation
					JOINT RightUpArm
					{
						OFFSET -15.509571 -7.193787 -4.024787
						CHANNELS 3 Xrotation Yrotation Zrotation
						JOINT RightLowArm
						{
							OFFSET -13.732281 -30.074188 6.833946
							CHANNELS 3 Xrotation Yrotation Zrotation
							JOINT RightHand
							{
								OFFSET -17.341862 -8.614761 22.934700
								CHANNELS 3 Xrotation Yrotation Zrotation
								End Site
								{
									OFFSET -3.790241 -1.882820 5.012611
								}
							}
						}
					}
				}
			}
		}
	}
	JOINT LeftUpLeg
	{
		OFFSET 9.790131 -1.850105 -1.072188
		CHANNELS 3 Xrotation Yrotation Zrotation
		JOINT LeftLowLeg
		{
			OFFSET 1.027468 -44.156090 17.122311
			CHANNELS 3 Xrotation Yrotation Zrotation
			JOINT LeftFoot
			{
				OFFSET -23.051249 -33.670311 -18.317158
				CHANNELS 3 Xrotation Yrotation Zrotation
				JOINT LeftToe
				{
					OFFSET -10.095655 -19.719997 8.292114
					CHANNELS 3 Xrotation Yrotation Zrotation
					End Site
					{
						OFFSET 0.254467 -14.061004 19.020575
					}
				}
			}
		}
	}
	JOINT RightUpLeg
	{
		OFFSET -9.790173 1.849915 1.072166
		CHANNELS 3 Xrotation Yrotation Zrotation
		JOINT RightLowLeg
		{
			OFFSET -0.565773 -47.340519 1.602495
			CHANNELS 3 Xrotation Yrotation Zrotation
			JOINT RightFoot
			{
				OFFSET 5.564691 -40.266602 -18.660528
				CHANNELS 3 Xrotation Yrotation Zrotation
				JOINT RightToe
				{
					OFFSET -1.112057 -20.952576 10.922899
					CHANNELS 3 Xrotation Yrotation Zrotation
					End Site
					{
						OFFSET -3.925814 -9.271357 21.405281
					}
				}
			}
		}
	}
}
MOTION
Frames: 5
Frame Time: 0.033333
-6.867918 106.103180 -1.111724 1.999375 -5.865387 9.251191 -11.935557 2.301573 -0.256053 9.725303 3.475914 -5.209843 -2.637608 -7.498050 -8.529119 -6.894416 12.773436 -5.309340 -0.000001 0.000000 -0.000002 -2.015695 4.760766 -44.857595 9.635099 21.960008 -75.665532 -4.487215 100.329455 -46.053985 -0.000003 -0.000001 -0.000002 5.344876 -6.602933 1.169950 11.935995 8.234299 18.662865 29.201463 15.573412 25.820600 -0.000002 0.000000 -0.000003 23.365169 -4.093625 -4.834053 -30.269749 3.936680 31.802286 -22.544773 -3.069941 10.518229 0.000003 0.000002 -0.000001 3.663451 0.700519 -9.734567 -8.441450 1.493287 -8.498868 -3.142678 3.153024 6.200530 0.000000 -0.000000 -0.000000 
-6.871414 106.105728 -1.110896 1.878974 -5.945432 9.230254 -11.725843 2.254446 -0.230505 9.283857 3.596878 -5.244324 -2.255550 -7.575891 -8.524683 -7.217989 12.759847 -5.287918 -0.000002 0.000000 -0.000002 -2.196442 4.987691 -44.884721 9.419111 21.882828 -75.594321 -5.854637 100.263140 -44.890349 -0.000002 0.000002 -0.000001 5.199433 -6.547371 1.177887 12.129928 7.862250 18.665503 29.486705 15.216289 26.291145 -0.000002 0.000005 0.000003 23.529109 -4.124238 -4.766955 -30.406028 4.016175 31.804441 -22.259829 -3.071886 10.356014 0.000001 0.000000 0.000001 4.072388 0.614354 -9.782470 -9.059307 1.335652 -8.463771 -3.258899 3.271083 6.417216 0.000002 -0.000000 0.000000 
-6.875467 106.106812 -1.108830 1.558700 -5.889419 9.218265 -11.380581 2.193911 -0.244181 9.442296 3.561625 -5.251754 -2.537278 -7.263695 -8.477698 -6.813310 12.613971 -5.294839 0.000001 0.000000 -0.000002 -2.114021 4.424033 -44.993434 9.343447 22.207727 -75.689568 -6.228063 100.047887 -44.553194 -0.000001 0.000002 0.000000 5.101203 -6.915177 1.154139 12.473939 7.485905 18.563792 29.098706 15.420226 26.615362 0.000001 0.000003 -0.000000 23.788876 -4.148257 -4.730442 -30.413794 4.015734 31.739090 -22.053646 -3.052603 10.256021 0.000003 0.000000 0.000001 4.278623 0.570205 -9.807989 -8.738392 1.351428 -8.403904 -3.288952 3.241158 6.423069 -0.000002 0.000000 0.000001 
-6.880022 106.107262 -1.105542 1.858620 -5.953937 9.237115 -11.883032 2.299706 -0.229420 9.373121 3.585791 -5.278487 -2.291517 -7.216640 -8.395539 -6.808529 12.636729 -5.343014 -0.000002 -0.000001 -0.000001 -2.063571 4.279123 -44.920546 9.274249 22.209120 -75.769201 -6.219121 99.810640 -44.447746 -0.000001 0.000002 0.000000 5.107943 -6.653316 1.107115 12.320848 7.543157 18.723364 29.003825 15.240165 26.512607 0.000001 0.000000 -0.000002 23.622529 -4.127419 -4.754059 -30.633146 3.974624 31.792563 -22.044769 -3.013208 10.318499 0.000001 0.000004 -0.000002 4.168704 0.595464 -9.775759 -8.911396 1.378815 -8.454631 -3.382620 3.375496 6.565873 -0.000001 -0.000000 0.000000 
-6.887795 106.108124 -1.093127 1.683320 -7.262116 9.302952 -10.968231 2.246501 -0.567046 9.150787 4.035683 -5.805179 -1.992357 -7.002619 -7.644267 -7.470951 13.228052 -5.512656 -0.000002 0.000000 -0.000002 -2.726981 6.376185 -44.757308 9.030099 22.240865 -75.394094 -10.691152 100.222412 -39.721894 -0.000005 -0.000001 -0.000003 5.191142 -4.978481 1.223877 12.626046 6.941001 18.585889 27.842196 15.844613 26.249045 0.000002 0.000000 -0.000001 23.510923 -4.098816 -4.807343 -29.242335 3.892197 31.235739 -21.668854 -2.378344 11.236912 -0.000001 0.000002 -0.000001 4.079558 0.517673 -9.818887 -8.494875 1.666879 -8.764547 -3.119591 4.756817 6.932743 0.000002 0.000000 0.000000 
